<?xml version="1.0" encoding="iso-8859-1"?>
<!-- Generator: Adobe Illustrator 19.0.0, SVG Export Plug-In . SVG Version: 6.00 Build 0)  -->
<svg version="1.1" id="Capa_1" xmlns="http://www.w3.org/2000/svg" xmlns:xlink="http://www.w3.org/1999/xlink" x="0px" y="0px"
	 viewBox="0 0 470.002 470.002" style="enable-background:new 0 0 470.002 470.002;" xml:space="preserve">
<g>
	<path style="fill:#98D9D5;" d="M101.917,378.655c-2.148-0.89-4.146-1.988-5.989-3.257l-9.551,23.059
		c-2.3,5.553-2.3,11.668,0,17.221c1.306,3.152,3.282,5.889,5.747,8.104l17.793-42.955
		C107.183,380.449,104.506,379.728,101.917,378.655z"/>
	<path style="fill:#98D9D5;" d="M174.646,224.556l28.235-68.165l-3.293-31.25l-43.582,105.217c-0.014,0.034-0.028,0.069-0.043,0.104
		l-35.708,86.208c2.226,0.412,4.412,1.053,6.537,1.934c2.624,1.087,5.027,2.481,7.192,4.122l40.64-98.113
		C174.63,224.594,174.638,224.574,174.646,224.556z"/>
	<path style="fill:#98D9D5;" d="M383.625,398.457l-9.549-23.054c-1.859,1.274-3.86,2.369-5.991,3.252
		c-2.589,1.072-5.266,1.794-7.999,2.171l17.793,42.955c2.465-2.215,4.441-4.951,5.747-8.104
		C385.925,410.125,385.925,404.01,383.625,398.457z"/>
	<path style="fill:#98D9D5;" d="M321.479,287.62l14.541,35.105c2.164-1.641,4.568-3.035,7.191-4.122
		c2.125-0.881,4.311-1.521,6.537-1.934l-35.709-86.209c-0.014-0.033-0.028-0.067-0.042-0.102l-43.583-105.218l-3.293,31.25
		l28.23,68.153c0.012,0.028,0.024,0.057,0.035,0.085l14.611,35.274c1.586,3.827-0.231,8.213-4.057,9.798l5.741,13.859
		C315.508,281.976,319.894,283.793,321.479,287.62z"/>
	<path style="fill:#F2484B;" d="M210.443,66.899c-1.103,1.226-1.604,2.906-1.411,4.732l2.378,22.569
		c0.005,0.048,5.88,55.797,5.88,55.797h35.422l5.875-55.75c0.005-0.048,2.383-22.617,2.383-22.617
		c0.193-1.826-0.309-3.507-1.411-4.732c-1.103-1.225-2.721-1.899-4.558-1.899h-40C213.164,65,211.546,65.675,210.443,66.899z"/>
	<path style="fill:#FFFFFF;" d="M121.051,332.461c-2.145-0.888-4.395-1.339-6.688-1.339c-7.107,0-13.457,4.244-16.178,10.811
		c-3.691,8.915,0.557,19.172,9.472,22.865c2.145,0.888,4.394,1.338,6.687,1.338c7.107,0,13.458-4.243,16.179-10.81
		C134.215,346.411,129.966,336.154,121.051,332.461z"/>
	<path style="fill:#082947;" d="M397.483,421.418c3.833-9.255,3.833-19.447-0.001-28.701l-12.482-30.134
		c0.236-0.498,0.462-1.004,0.674-1.517c3.322-8.021,3.321-16.854-0.001-24.874c-3.598-8.687-10.624-15.163-19.135-18.182
		l-34.385-83.012h23.899c1.031,2.911,3.8,5,7.064,5c4.143,0,7.5-3.357,7.5-7.5v-10c0-4.143-3.357-7.5-7.5-7.5
		c-3.265,0-6.034,2.089-7.064,5h-30.112L273.707,93.896l2.18-20.691c0.644-6.109-1.195-11.913-5.18-16.339
		C266.723,52.438,261.146,50,255.001,50h-12.5V7.5c0-4.143-3.357-7.5-7.5-7.5s-7.5,3.357-7.5,7.5V50h-12.5
		c-6.145,0-11.723,2.438-15.707,6.865c-3.984,4.427-5.823,10.229-5.18,16.339l2.18,20.691l-52.234,126.104h-30.112
		c-1.031-2.911-3.8-5-7.064-5c-4.143,0-7.5,3.357-7.5,7.5v10c0,4.143,3.357,7.5,7.5,7.5c3.265,0,6.034-2.089,7.064-5h23.899
		l-34.385,83.012c-8.51,3.019-15.537,9.495-19.135,18.182c-3.654,8.822-3.119,18.352,0.682,26.368L72.52,392.717
		c-3.834,9.254-3.834,19.446-0.001,28.701c2.859,6.899,7.594,12.659,13.653,16.733l-8.897,21.479
		c-1.586,3.827,0.231,8.214,4.059,9.799c0.938,0.39,1.91,0.573,2.867,0.573c2.943,0,5.735-1.744,6.932-4.632l35.974-86.85
		c7.667-3.265,13.942-9.411,17.274-17.454c3.379-8.157,3.171-16.918,0.117-24.529l42.058-101.538h40.946v12.5
		c0,4.143,3.357,7.5,7.5,7.5s7.5-3.357,7.5-7.5v-12.5h40.946l12.693,30.645c1.196,2.889,3.988,4.632,6.932,4.632
		c0.956,0,1.929-0.185,2.867-0.573c3.828-1.586,5.644-5.972,4.059-9.799l-14.611-35.274c-0.012-0.028-0.023-0.057-0.035-0.085
		l-28.23-68.153l3.293-31.25l43.583,105.218c0.014,0.034,0.027,0.068,0.042,0.102l35.709,86.209
		c-2.226,0.412-4.412,1.053-6.537,1.934c-2.623,1.087-5.027,2.481-7.191,4.122l-14.541-35.105c-1.585-3.827-5.97-5.645-9.797-4.06
		c-3.829,1.586-5.646,5.973-4.06,9.8l17.885,43.177c-3.054,7.611-3.262,16.372,0.116,24.529c3.332,8.043,9.606,14.189,17.274,17.454
		l24.489,59.121c0.008,0.02,11.486,27.729,11.486,27.729c1.196,2.889,3.988,4.632,6.932,4.632c0.956,0,1.929-0.185,2.867-0.573
		c3.827-1.585,5.645-5.972,4.059-9.799l-8.897-21.479C389.89,434.077,394.626,428.317,397.483,421.418z M377.878,423.781
		l-17.793-42.955c2.733-0.377,5.41-1.099,7.999-2.171c2.131-0.883,4.132-1.978,5.991-3.252l9.549,23.054
		c2.3,5.553,2.3,11.668,0,17.221C382.319,418.83,380.343,421.566,377.878,423.781z M348.951,332.461
		c2.145-0.888,4.395-1.339,6.688-1.339c7.107,0,13.457,4.244,16.178,10.811c1.789,4.318,1.789,9.075,0,13.394
		s-5.152,7.683-9.472,9.472c-2.145,0.888-4.394,1.338-6.687,1.338c-7.107,0-13.458-4.243-16.179-10.81
		C335.788,346.411,340.036,336.154,348.951,332.461z M86.377,415.678c-2.3-5.553-2.3-11.668,0-17.221l9.551-23.059
		c1.843,1.269,3.841,2.367,5.989,3.257c2.589,1.072,5.266,1.794,7.999,2.171l-17.793,42.955
		C89.659,421.566,87.682,418.83,86.377,415.678z M130.522,355.326c-2.721,6.566-9.071,10.81-16.179,10.81
		c-2.293,0-4.542-0.45-6.687-1.338c-8.915-3.693-13.163-13.95-9.472-22.865c2.721-6.566,9.07-10.811,16.178-10.811
		c2.293,0,4.543,0.451,6.688,1.339C129.966,336.154,134.215,346.411,130.522,355.326z M133.983,322.726
		c-2.164-1.641-4.568-3.035-7.192-4.122c-2.125-0.881-4.311-1.521-6.537-1.934l35.708-86.208c0.015-0.034,0.029-0.069,0.043-0.104
		l43.582-105.217l3.293,31.25l-28.235,68.165c-0.008,0.019-0.016,0.038-0.024,0.057L133.983,322.726z M255.001,65
		c1.837,0,3.455,0.675,4.558,1.899c1.103,1.226,1.604,2.906,1.411,4.732l-2.378,22.569c-0.005,0.048-5.88,55.797-5.88,55.797H217.29
		l-5.875-55.75c-0.005-0.048-2.383-22.617-2.383-22.617c-0.193-1.826,0.309-3.507,1.411-4.732c1.103-1.225,2.721-1.899,4.558-1.899
		H255.001z M242.501,219.999v-12.5c0-4.143-3.357-7.5-7.5-7.5s-7.5,3.357-7.5,7.5v12.5h-34.733l22.782-55.001h38.901l22.782,55.001
		H242.501z"/>
	<path style="fill:#FFFFFF;" d="M355.658,366.136c2.293,0,4.542-0.45,6.687-1.338c4.319-1.789,7.683-5.153,9.472-9.472
		s1.789-9.075,0-13.394c-2.721-6.566-9.07-10.811-16.178-10.811c-2.293,0-4.543,0.451-6.688,1.339
		c-8.915,3.693-13.163,13.95-9.472,22.865C342.2,361.893,348.551,366.136,355.658,366.136z"/>
</g>
<g>
</g>
<g>
</g>
<g>
</g>
<g>
</g>
<g>
</g>
<g>
</g>
<g>
</g>
<g>
</g>
<g>
</g>
<g>
</g>
<g>
</g>
<g>
</g>
<g>
</g>
<g>
</g>
<g>
</g>
</svg>
