<?xml version="1.0" encoding="iso-8859-1"?>
<!-- Generator: Adobe Illustrator 19.1.0, SVG Export Plug-In . SVG Version: 6.00 Build 0)  -->
<svg version="1.1" id="Capa_1" xmlns="http://www.w3.org/2000/svg" xmlns:xlink="http://www.w3.org/1999/xlink" x="0px" y="0px"
	 viewBox="0 0 218.332 218.332" style="enable-background:new 0 0 218.332 218.332;" xml:space="preserve">
<g>
	<g id="group-167svg">
		<path id="path-1_75_" style="fill:#0CB04A;" d="M20.958,197.523L0,176.762l94.664-93.778l20.956,20.761L20.958,197.523z"/>
		<path id="path-2_75_" style="opacity:0.25;fill:#020403;enable-background:new    ;" d="M14.356,174.678l-6.127-6.069L0,176.761
			l20.958,20.762l94.662-93.778l-8.229-8.153L27.56,174.678C23.914,178.29,18.002,178.29,14.356,174.678z"/>
		<path id="path-3_75_" style="fill:#142A3B;" d="M153.545,57.323l-8.129-8.052l5.604-5.551l8.128,8.052L153.545,57.323z"/>
		<path id="path-4_75_" style="fill:#2476FF;" d="M155.9,117.591l-1.234-1.223c-4.138-4.098-4.138-10.805,0-14.904l21.548-21.347
			c4.138-4.098,10.908-4.098,15.045,0l1.235,1.223c4.136,4.099,4.136,10.805,0,14.903l-21.55,21.348
			C166.807,121.69,160.038,121.69,155.9,117.591z"/>
		<path id="path-5_75_" style="opacity:0.35;fill:#020403;enable-background:new    ;" d="M193.211,85.75l-22.983,22.768
			c-3.744,3.708-9.868,3.708-13.61,0l-2.67-2.644c-0.569-0.564-1.021-1.193-1.417-1.849c-2.209,3.66-1.756,8.487,1.417,11.632
			l2.67,2.644c3.742,3.708,9.866,3.708,13.61,0l22.983-22.769c3.173-3.144,3.626-7.972,1.418-11.632
			C194.233,84.556,193.78,85.186,193.211,85.75z"/>
		<path id="path-6_74_" style="fill:#2476FF;" d="M146.355,92.622c2.581-2.555,6.763-2.555,9.343,0
			c1.7,1.684,2.256,4.052,1.716,6.207l18.564-18.391c-2.174,0.536-4.565-0.015-6.266-1.698c-1.883-1.867-2.375-4.574-1.51-6.895
			l-43.808-43.4c-10.277-10.181-27.094-10.181-37.371,0c0,0-11.679,14.655-14.015,27.767c-2.526,14.18,27.095-10.18,37.372,0
			l35.759,36.672C146.217,92.8,146.273,92.704,146.355,92.622z"/>
		<path id="path-7_74_" style="fill:#FFFFFF;" d="M121.19,38.572c-0.931,0-1.862-0.352-2.573-1.056
			c-7.121-7.053-18.695-7.047-25.817,0c-1.42,1.408-3.723,1.408-5.144,0c-1.422-1.407-1.422-3.69,0-5.097
			c9.961-9.865,26.154-9.86,36.107,0c1.422,1.407,1.422,3.69,0,5.097C123.053,38.22,122.121,38.572,121.19,38.572z"/>
		<path id="path-8_71_" style="opacity:0.35;fill:#020403;enable-background:new    ;" d="M169.713,78.74
			c-0.33-0.327-0.563-0.707-0.808-1.078l-8.199,8.123c0.54-2.154-0.016-4.523-1.716-6.206c-2.58-2.557-6.763-2.557-9.343,0
			c-0.083,0.081-0.139,0.176-0.215,0.261l-35.76-36.672C104.278,33.863,78.738,53.397,76.344,46
			c-1.494,3.32-2.73,6.815-3.336,10.212c-2.526,14.18,27.095-10.18,37.372,0l35.76,36.672c0.077-0.084,0.133-0.18,0.215-0.262
			c2.581-2.556,6.763-2.556,9.343,0c1.7,1.684,2.256,4.052,1.716,6.207l18.564-18.391C173.804,80.973,171.413,80.423,169.713,78.74z
			"/>
		<path id="path-9_68_" style="fill:#142A3B;" d="M114.6,75.943l-13.522,13.395l8.127,8.052l13.523-13.396L114.6,75.943z"/>
		<path id="path-10_62_" style="fill:#142A3B;" d="M129.143,90.349l-20.957-20.762l7.347-7.277l20.957,20.761L129.143,90.349z"/>
		<path id="path-11_54_" style="opacity:0.45;fill:#020403;enable-background:new    ;" d="M115.533,62.31l-3.292,3.26
			l17.666,17.501l-4.056,4.017l3.293,3.261l7.346-7.278L115.533,62.31z"/>
		<path id="path-12_45_" style="fill:#142A3B;" d="M187.551,155.282l-5.367,32.751l-5.366-32.751H187.551z"/>
		<path id="path-13_36_" style="fill:#142A3B;" d="M195.919,152.056c0,1.883-6.15,3.409-13.735,3.409
			c-7.585,0-13.736-1.526-13.736-3.409c0-1.882,6.151-3.409,13.736-3.409C189.769,148.647,195.919,150.174,195.919,152.056z"/>
		<path id="path-14_30_" style="fill:#FBB713;" d="M193.963,185.553h7.059c1.361,0,2.464,0.607,2.464,1.354
			c0,0.748-1.103,1.355-2.464,1.355h-0.328c-1.362,0-2.464,0.606-2.464,1.355c0,0.747,1.102,1.354,2.464,1.354h15.174
			c1.36,0,2.464,0.606,2.464,1.353c0,0.749-1.104,1.355-2.464,1.355h-18.236h-37.273c-1.361,0-2.465-0.606-2.465-1.355
			c0-0.747,1.104-1.353,2.465-1.353h4.211c1.361,0,2.464-0.607,2.464-1.354c0-0.749-1.103-1.355-2.464-1.355h-20.043
			c-1.361,0-2.465-0.607-2.465-1.355c0-0.747,1.104-1.354,2.465-1.354h4.737H193.963z"/>
		<path id="path-15_27_" style="fill:#FBB713;" d="M140.429,195.144c2.539,0,4.597-0.501,4.597-1.121
			c0-0.619-2.058-1.121-4.597-1.121h-14.09c-2.539,0-4.597,0.502-4.597,1.121c0,0.62,2.058,1.121,4.597,1.121H140.429z"/>
		<path id="path-16_23_" style="fill:#142A3B;" d="M202.131,128.473l0.859-2.144c0.165-0.412-0.212-0.948-0.845-1.197
			c-0.63-0.248-1.277-0.115-1.443,0.298l-0.04,0.099c-0.165,0.414-0.811,0.547-1.442,0.299c-0.633-0.249-1.01-0.785-0.845-1.198
			l1.846-4.605c0.166-0.413-0.212-0.95-0.843-1.198c-0.633-0.248-1.278-0.115-1.444,0.298l-2.218,5.533l-4.535,11.314
			c-0.166,0.412,0.213,0.949,0.844,1.198c0.632,0.249,1.277,0.114,1.443-0.298l0.513-1.279c0.165-0.413,0.811-0.546,1.443-0.297
			c0.632,0.248,1.009,0.785,0.844,1.197l-2.438,6.083c-0.165,0.412,0.213,0.949,0.843,1.198c0.632,0.247,1.277,0.114,1.443-0.298
			l0.576-1.439L202.131,128.473z"/>
		<path id="path-17_20_" style="fill:#142A3B;" d="M207.668,104.139c0.767-1.916,2.397-3.072,3.639-2.583
			c1.242,0.489,1.627,2.437,0.86,4.353l-4.26,10.627c-0.768,1.915-2.398,3.071-3.64,2.583c-1.242-0.489-1.627-2.439-0.86-4.353
			L207.668,104.139z"/>
		<path id="path-18_17_" style="fill:#142A3B;" d="M148.905,138.255l-0.858-2.141c-0.166-0.414,0.212-0.95,0.844-1.198
			c0.63-0.249,1.277-0.116,1.443,0.297l0.039,0.1c0.166,0.413,0.813,0.545,1.445,0.298c0.631-0.248,1.008-0.785,0.843-1.198
			l-1.847-4.605c-0.165-0.413,0.213-0.949,0.845-1.199c0.631-0.247,1.278-0.114,1.443,0.299l2.218,5.534l4.535,11.313
			c0.166,0.412-0.212,0.949-0.844,1.197c-0.632,0.249-1.277,0.116-1.443-0.297l-0.512-1.279c-0.166-0.413-0.812-0.547-1.444-0.298
			c-0.632,0.249-1.01,0.785-0.844,1.197l2.439,6.084c0.166,0.413-0.212,0.949-0.844,1.197c-0.632,0.249-1.278,0.115-1.443-0.297
			l-0.576-1.438L148.905,138.255z"/>
		<path id="path-19_14_" style="fill:#142A3B;" d="M143.37,113.922c-0.769-1.916-2.399-3.072-3.64-2.584
			c-1.243,0.489-1.628,2.438-0.86,4.354l4.26,10.627c0.768,1.914,2.397,3.071,3.64,2.583c1.242-0.49,1.627-2.438,0.859-4.353
			L143.37,113.922z"/>
	</g>
</g>
<g>
</g>
<g>
</g>
<g>
</g>
<g>
</g>
<g>
</g>
<g>
</g>
<g>
</g>
<g>
</g>
<g>
</g>
<g>
</g>
<g>
</g>
<g>
</g>
<g>
</g>
<g>
</g>
<g>
</g>
</svg>
