<?xml version="1.0" encoding="iso-8859-1"?>
<!-- Generator: Adobe Illustrator 18.0.0, SVG Export Plug-In . SVG Version: 6.00 Build 0)  -->
<!DOCTYPE svg PUBLIC "-//W3C//DTD SVG 1.1//EN" "http://www.w3.org/Graphics/SVG/1.1/DTD/svg11.dtd">
<svg version="1.1" id="Capa_1" xmlns="http://www.w3.org/2000/svg" xmlns:xlink="http://www.w3.org/1999/xlink" x="0px" y="0px"
	 viewBox="0 0 198.211 198.211" style="enable-background:new 0 0 198.211 198.211;" xml:space="preserve">
<g>
	<path style="fill:#D8AE58;" d="M165.057,172.624H16.172c0,0-12.069-6.295-11.29-8.241s12.458,3.894,12.458,3.894
		s-1.946-4.672,0-5.062c1.947-0.39,6.619,4.672,9.344,5.062c2.725,0.389,2.725-2.336,6.619-1.558
		c3.893,0.778,7.787,1.558,7.787,1.558c5.451-2.726,17.52,0.778,18.688,0.778c1.168,0,42.047,0.39,56.842,1.168
		c0,0-6.23-3.114-3.894-4.282c2.336-1.168,13.627,3.114,13.627,3.114s1.168-1.946,3.894-1.946s8.954,2.336,8.954,2.336
		s0.39-1.947,2.726-1.558C144.263,168.277,163.659,168.017,165.057,172.624z"/>
	<g>
		<polygon style="fill:#5B3514;" points="123.281,37.292 107.471,25.586 107.471,32.789 116.814,40.381 		"/>
		<path style="fill:#5B3514;" d="M149.412,110.149V74.746c0-0.329,0.267-0.597,0.597-0.597h2.523c0.33,0,0.598,0.267,0.598,0.597
			v35.403c0,0.33-0.268,0.597-0.598,0.597h-2.523C149.679,110.746,149.412,110.479,149.412,110.149z"/>
		<path style="fill:#5B3514;" d="M129.686,110.149V74.746c0-0.329,0.268-0.597,0.597-0.597h2.524c0.329,0,0.597,0.267,0.597,0.597
			v35.403c0,0.33-0.268,0.597-0.597,0.597h-2.524C129.953,110.746,129.686,110.479,129.686,110.149z"/>
		<path style="fill:#5B3514;" d="M135.267,110.279V70.593c0-0.33,0.267-0.597,0.597-0.597h2.523c0.33,0,0.598,0.267,0.598,0.597
			v39.686c0,0.33-0.268,0.597-0.598,0.597h-2.523C135.533,110.875,135.267,110.609,135.267,110.279z"/>
		<path style="fill:#5B3514;" d="M151.972,81.458h-15.028c-0.33,0-0.597-0.267-0.597-0.597v-2.524c0-0.329,0.267-0.597,0.597-0.597
			h15.028c0.33,0,0.597,0.268,0.597,0.597v2.524C152.568,81.191,152.302,81.458,151.972,81.458z"/>
		<rect x="116.449" y="37.292" style="fill:#5B3514;" width="6.832" height="51.911"/>
		<path style="fill:#FEBD33;" d="M175,138.479c0,0,0-43.137,0-51.184c0-8.046-55.719-6.336-55.719-6.336s0-27.925,0-37.788
			s-64.271-9.344-64.271-3.115s0,98.422,0,98.422H175z"/>
		<path style="fill:#FAA334;" d="M88.598,138.479h72.969c0.539-13.035-0.303-48.561-0.303-50.664c0-3.894-42.178-4.153-42.178,0.26
			c0,4.412,0,29.849,0,29.849h-12.329L88.598,138.479z"/>
		<path style="fill:#FAA334;" d="M115.298,72.696h-47.19c-1.053,0-1.906-0.854-1.906-1.906V45.986c0-1.053,0.854-1.906,1.906-1.906
			h47.19c1.053,0,1.906,0.854,1.906,1.906V70.79C117.204,71.842,116.351,72.696,115.298,72.696z"/>
		<g>
			<circle style="fill:#6E4320;" cx="64.55" cy="124.152" r="43.193"/>
			<path style="fill:#6E4320;" d="M75.937,172.624H53.164c-1.604,0-2.917-1.313-2.917-2.917v-91.11c0-1.604,1.313-2.916,2.917-2.916
				h22.773c1.604,0,2.916,1.312,2.916,2.916v91.11C78.854,171.312,77.541,172.624,75.937,172.624z"/>
			<path style="fill:#6E4320;" d="M38.327,166.479l-16.103-16.104c-1.134-1.134-1.134-2.99,0-4.125l64.425-64.425
				c1.134-1.134,2.99-1.134,4.124,0l16.104,16.104c1.134,1.134,1.134,2.99,0,4.125l-64.425,64.425
				C41.317,167.613,39.461,167.613,38.327,166.479z"/>
			<path style="fill:#6E4320;" d="M16.079,135.539v-22.773c0-1.604,1.313-2.917,2.917-2.917h91.11c1.604,0,2.917,1.313,2.917,2.917
				v22.773c0,1.604-1.313,2.917-2.917,2.917h-91.11C17.391,138.456,16.079,137.143,16.079,135.539z"/>
			<path style="fill:#6E4320;" d="M22.224,97.929l16.103-16.104c1.134-1.134,2.99-1.134,4.124,0l64.425,64.425
				c1.134,1.135,1.134,2.991,0,4.125l-16.104,16.104c-1.134,1.134-2.99,1.134-4.124,0l-64.425-64.425
				C21.09,100.919,21.09,99.063,22.224,97.929z"/>
			<circle style="fill:#5B3514;" cx="64.55" cy="124.152" r="39.793"/>
			<circle style="fill:#FEBD33;" cx="64.551" cy="124.152" r="20.038"/>
			<circle style="fill:#6E4320;" cx="64.55" cy="124.152" r="15.522"/>
			<circle style="fill:#5B3514;" cx="64.551" cy="124.152" r="9.54"/>
			<circle style="fill:#FEBD33;" cx="64.55" cy="124.152" r="5.786"/>
		</g>
		<g>
			<circle style="fill:#6E4320;" cx="164.065" cy="138.479" r="30.427"/>
			<path style="fill:#6E4320;" d="M171.225,172.624h-14.318c-1.604,0-2.916-1.313-2.916-2.917v-62.458
				c0-1.604,1.313-2.916,2.916-2.916h14.318c1.604,0,2.917,1.313,2.917,2.916v62.458
				C174.142,171.312,172.829,172.624,171.225,172.624z"/>
			<path style="fill:#6E4320;" d="M144.983,167.685l-10.125-10.124c-1.134-1.135-1.134-2.99,0-4.125l44.165-44.164
				c1.134-1.134,2.99-1.134,4.124,0l10.125,10.124c1.134,1.135,1.134,2.991,0,4.125l-44.164,44.164
				C147.974,168.82,146.117,168.82,144.983,167.685z"/>
			<path style="fill:#6E4320;" d="M129.92,145.638V131.32c0-1.605,1.313-2.917,2.917-2.917h62.457c1.604,0,2.917,1.313,2.917,2.917
				v14.318c0,1.604-1.313,2.916-2.917,2.916h-62.457C131.232,148.554,129.92,147.242,129.92,145.638z"/>
			<path style="fill:#6E4320;" d="M134.858,119.396l10.125-10.124c1.134-1.134,2.99-1.134,4.125,0l44.164,44.164
				c1.134,1.135,1.134,2.99,0,4.125l-10.125,10.124c-1.134,1.135-2.99,1.135-4.124,0l-44.165-44.164
				C133.725,122.387,133.725,120.531,134.858,119.396z"/>
			<circle style="fill:#5B3514;" cx="164.065" cy="138.479" r="28.032"/>
			<circle style="fill:#FEBD33;" cx="164.065" cy="138.479" r="14.115"/>
			<circle style="fill:#6E4320;" cx="164.065" cy="138.479" r="10.935"/>
			<circle style="fill:#5B3514;" cx="164.066" cy="138.479" r="6.72"/>
			<circle style="fill:#FEBD33;" cx="164.066" cy="138.479" r="4.076"/>
		</g>
		<path style="fill:#C1E8FB;" d="M96.277,47.194H75.059c-3.279,0-5.938,2.658-5.938,5.938v11.485c0,3.279,2.659,5.937,5.938,5.937
			h21.218c3.279,0,5.938-2.658,5.938-5.937V53.132C102.215,49.853,99.557,47.194,96.277,47.194z"/>
		<path style="fill:#C1E8FB;" d="M111.545,47.194h-3.278c-1.713,0-3.102,1.388-3.102,3.101v17.158c0,1.713,1.389,3.101,3.102,3.101
			h3.278c1.713,0,3.102-1.388,3.102-3.101V50.295C114.646,48.583,113.258,47.194,111.545,47.194z"/>
		<g>
			<polygon style="fill:#FFFFFF;" points="76.248,47.194 69.122,54.66 69.122,57.977 78.906,47.194 			"/>
			<path style="fill:#FFFFFF;" d="M80.957,47.194L69.122,60.467v4.15c0,0.121,0.029,0.233,0.036,0.352l15.824-17.775H80.957z"/>
		</g>
		<g>
			<polygon style="fill:#FFFFFF;" points="108.821,47.194 105.165,51.025 105.165,54.153 111.479,47.194 			"/>
			<path style="fill:#FFFFFF;" d="M114.646,50.295c0-1.132-0.638-2.08-1.544-2.621l-7.938,8.901v4.537l9.481-10.65V50.295z"/>
		</g>
		<path style="fill:#5B3514;" d="M157.033,92.49h-35.404c-0.329,0-0.597-0.268-0.597-0.598v-2.523c0-0.33,0.267-0.597,0.597-0.597
			h35.404c0.329,0,0.597,0.267,0.597,0.597v2.523C157.63,92.222,157.362,92.49,157.033,92.49z"/>
		<path style="fill:#5B3514;" d="M157.033,98.862h-35.404c-0.329,0-0.597-0.267-0.597-0.597v-2.523c0-0.33,0.267-0.597,0.597-0.597
			h35.404c0.329,0,0.597,0.267,0.597,0.597v2.523C157.63,98.595,157.362,98.862,157.033,98.862z"/>
		<path style="fill:#5B3514;" d="M157.033,105.189h-35.404c-0.329,0-0.597-0.268-0.597-0.597v-2.524
			c0-0.329,0.267-0.597,0.597-0.597h35.404c0.329,0,0.597,0.268,0.597,0.597v2.524C157.63,104.921,157.362,105.189,157.033,105.189z
			"/>
		<circle style="fill:#FAA334;" cx="109.093" cy="86.906" r="4.023"/>
		<circle style="fill:#5B3514;" cx="109.093" cy="86.906" r="2.466"/>
	</g>
	<path style="fill:#D8AE58;" d="M13.058,162.047c0,0-16.352-3.698-12.459-9.539C4.493,146.668,13.058,162.047,13.058,162.047z"/>
	<path style="fill:#D8AE58;" d="M25.322,163.41c0,0-10.706-3.114-8.371-6.618C19.287,153.288,25.322,163.41,25.322,163.41z"/>
	<path style="fill:#D8AE58;" d="M135.309,165.551c-0.584,0.194-5.451-10.901-9.345-7.008
		C122.071,162.437,135.309,165.551,135.309,165.551z"/>
	<path style="fill:#D8AE58;" d="M123.044,163.994c0,0-9.733-10.512-12.848-7.008C107.082,160.49,123.044,163.994,123.044,163.994z"
		/>
	<path style="fill:#D8AE58;" d="M109.028,167.303c0,0-5.451-7.592-7.592-5.256C99.295,164.383,109.028,167.303,109.028,167.303z"/>
</g>
<g>
</g>
<g>
</g>
<g>
</g>
<g>
</g>
<g>
</g>
<g>
</g>
<g>
</g>
<g>
</g>
<g>
</g>
<g>
</g>
<g>
</g>
<g>
</g>
<g>
</g>
<g>
</g>
<g>
</g>
</svg>
